<svg xmlns="http://www.w3.org/2000/svg" width="24" height="23.12" viewBox="0 0 24 23.12"><defs><style>.a{fill:#516570;}</style></defs><path class="a" d="M19.779,10.8V9.388H18.372V10.8H5.628V9.388H4.221V10.8H0V32.507H24V10.8ZM4.221,12.2v1.407H5.628V12.2H18.372v1.407h1.407V12.2h2.814v2.814H1.407V12.2ZM1.407,31.1V16.423H22.593V31.1Z" transform="translate(0 -9.388)"/><rect class="a" width="2.483" height="2.483" transform="translate(3.723 8.911)"/><rect class="a" width="2.483" height="2.483" transform="translate(8.413 8.911)"/><rect class="a" width="2.483" height="2.483" transform="translate(13.104 8.911)"/><rect class="a" width="2.483" height="2.483" transform="translate(17.794 8.911)"/><rect class="a" width="2.483" height="2.483" transform="translate(3.723 13.132)"/><rect class="a" width="2.483" height="2.483" transform="translate(8.413 13.132)"/><rect class="a" width="2.483" height="2.483" transform="translate(13.104 13.132)"/><rect class="a" width="2.483" height="2.483" transform="translate(17.794 13.132)"/><rect class="a" width="2.483" height="2.483" transform="translate(3.723 17.353)"/><rect class="a" width="2.483" height="2.483" transform="translate(8.413 17.353)"/><rect class="a" width="2.483" height="2.483" transform="translate(13.104 17.353)"/><rect class="a" width="2.483" height="2.483" transform="translate(17.794 17.353)"/></svg>